<svg xmlns="http://www.w3.org/2000/svg" id="Livello_1" data-name="Livello 1" viewBox="0 0 500 500"><defs><style>.cls-1{fill:#7b499d}.cls-2{fill:#d6d6d6}.cls-3,.cls-4{fill:#fff}.cls-4{font-size:31.64px;font-family:MyriadPro-Regular,Myriad Pro}.cls-5{letter-spacing:-.03em}</style></defs><title>audio_Tavola disegno 1</title><path d="M411.31,118.48v328a12,12,0,0,1-12,12H100.69a12,12,0,0,1-12-12V53.54a12,12,0,0,1,12-12H315.82Z" class="cls-1"/><path d="M315.82,41.54v63.54a13.44,13.44,0,0,0,13.4,13.4h82.1Z" class="cls-2"/><rect width="11.5" height="48.46" x="175.26" y="245.77" class="cls-3" rx="4.67" ry="4.67"/><rect width="11.5" height="77.21" x="192.51" y="231.4" class="cls-3" rx="4.67" ry="4.67"/><rect width="11.5" height="151.33" x="209.75" y="194.33" class="cls-3" rx="4.67" ry="4.67"/><rect width="11.5" height="88.29" x="227" y="225.85" class="cls-3" rx="4.67" ry="4.67"/><rect width="11.5" height="132.44" x="244.25" y="203.78" class="cls-3" rx="4.67" ry="4.67"/><rect width="11.5" height="77.21" x="261.5" y="231.4" class="cls-3" rx="4.67" ry="4.67"/><rect width="11.5" height="48.46" x="278.75" y="245.77" class="cls-3" rx="4.67" ry="4.67"/><rect width="11.5" height="132.44" x="296" y="203.78" class="cls-3" rx="4.67" ry="4.67"/><rect width="11.5" height="71.66" x="313.24" y="234.17" class="cls-3" rx="4.67" ry="4.67"/><text class="cls-4" transform="translate(175.21 425.76)"><tspan class="cls-5">A</tspan><tspan x="18.48" y="0">UDIO FILE</tspan></text></svg>