<svg xmlns="http://www.w3.org/2000/svg" id="Livello_1" data-name="Livello 1" viewBox="0 0 500 500"><defs><style>.cls-1{fill:#f9bf2c}.cls-2{fill:#d6d6d6}.cls-3{font-size:31.64px;font-family:MyriadPro-Regular,Myriad Pro}.cls-3,.cls-7{fill:#fff}.cls-4{letter-spacing:-.07em}.cls-5{letter-spacing:-.08em}.cls-6{fill:#e6e7e8}</style></defs><title>spreadsheet_Tavola disegno 1</title><path d="M411.31,118.48v328a12,12,0,0,1-12,12H100.69a12,12,0,0,1-12-12V53.54a12,12,0,0,1,12-12H315.82Z" class="cls-1"/><path d="M315.82,41.54v63.54a13.44,13.44,0,0,0,13.4,13.4h82.1Z" class="cls-2"/><text class="cls-3" transform="translate(151.19 425.76)">PRESEN<tspan x="101.42" y="0" class="cls-4">T</tspan><tspan x="114.77" y="0" class="cls-5">A</tspan><tspan x="131.7" y="0">TION</tspan></text><path d="M247.4,252h61.69a61.69,61.69,0,1,1-61.69-61.69h.27Z" class="cls-6"/><path d="M252.6,248V186.31A61.69,61.69,0,0,1,314.29,248Z" class="cls-7"/></svg>