<svg xmlns="http://www.w3.org/2000/svg" id="Livello_1" data-name="Livello 1" viewBox="0 0 500 500"><defs><style>.cls-1{fill:#33aa4d}.cls-2{fill:#d6d6d6}.cls-3{font-size:31.64px;fill:#fff;font-family:MyriadPro-Regular,Myriad Pro}.cls-4{letter-spacing:.02em}.cls-5,.cls-6{fill:none;stroke:#fff;stroke-miterlimit:10}.cls-5{stroke-width:12px}.cls-6{stroke-width:8px}</style></defs><title>spreadsheet_Tavola disegno 1</title><path d="M411.31,118.48v328a12,12,0,0,1-12,12H100.69a12,12,0,0,1-12-12V53.54a12,12,0,0,1,12-12H315.82Z" class="cls-1"/><path d="M315.82,41.54v63.54a13.44,13.44,0,0,0,13.4,13.4h82.1Z" class="cls-2"/><text class="cls-3" transform="translate(155.47 425.76)">SPREADSHE<tspan x="157.27" y="0" class="cls-4">E</tspan><tspan x="173.34" y="0">T</tspan></text><rect width="167.33" height="118.04" x="166.33" y="206.83" class="cls-5"/><line x1="166.33" x2="333.67" y1="245.85" y2="245.85" class="cls-6"/><line x1="250" x2="250" y1="206.83" y2="324.87" class="cls-6"/><line x1="166.33" x2="333.67" y1="285.85" y2="285.85" class="cls-6"/></svg>